# xmcd CD database file
#
# Track frame offsets:
#	150
#	7095
#	27650
#	43740
#	71797
#	92656
#	118075
#	136410
#	161486
#	182438
#	197398
#	218549
#
# Disc length: 3194 seconds
#
# Revision: 0
# Processed by: cddbd v1.5PL3 Copyright (c) Steve Scherf et al.
# Submitted via: CDex 1.50beta10
#
DISCID=a40c780c
DTITLE=Various Artist - Bruce Springsteen＆Jon Bon Jovi Red BANKS GIGS'98
DYEAR=1998
DGENRE=Rock
TTITLE0=Danny De Vito Intro.
TTITLE1=This Time It’s For Real
TTITLE2=Two Hearts
TTITLE3=Bad Medicine
TTITLE4=Until The Good Is Gone
TTITLE5=10th Avenue Freeze Out
TTITLE6=Broke Down Piece Of Man
TTITLE7=Bad Times Come Easy
TTITLE8=Love’s Glory
TTITLE9=There Goes My Baby
TTITLE10=Long Time
TTITLE11=You Give Love A Bad Name
EXTD=YEAR: 1998
EXTT0=
EXTT1=
EXTT2=
EXTT3=
EXTT4=
EXTT5=
EXTT6=
EXTT7=
EXTT8=
EXTT9=
EXTT10=
EXTT11=
PLAYORDER=
